<svg width="81" height="80" viewBox="0 0 81 80" fill="none" xmlns="http://www.w3.org/2000/svg">
<rect x="0.5" width="80" height="80" rx="40" fill="#E2E5EE"/>
<mask id="mask0_90_15698" style="mask-type:luminance" maskUnits="userSpaceOnUse" x="0" y="0" width="81" height="80">
<rect x="0.5" width="80" height="80" rx="40" fill="white"/>
</mask>
<g mask="url(#mask0_90_15698)">
<path d="M40.5 54.7812C50.8594 54.7812 59.4844 45.5938 59.4844 33.8281C59.4844 22.3438 50.8125 13.4375 40.5 13.4375C30.1875 13.4375 21.4219 22.4844 21.4688 33.9219C21.4688 45.5938 30.1406 54.7812 40.5 54.7812ZM9.46875 98.5156H71.4844C76.9219 98.5156 80.2031 95.8906 80.2031 91.5781C80.2031 79.5312 64.7812 63.0312 40.4531 63.0312C16.1719 63.0312 0.75 79.5312 0.75 91.5781C0.75 95.8906 4.03125 98.5156 9.46875 98.5156Z" fill="#697793"/>
</g>
</svg>
